# xmcd CD database file
# Copyright (C) 1993-1998 Ti Kan
#
# Track frame offsets:
#	150
#	11273
#	24333
#	41523
#	53440
#	67575
#	77760
#	92000
#	104048
#	113230
#	124478
#	136645
#	147638
#	159425
#	174445
#	183818
#	196323
#	207400
#	219340
#	228505
#	240688
#	251705
#	262570
#	274930
#	286798
#	297675
#	315285
#	325153
#
# Disc length: 4455 seconds
#
# Revision: 1
# Processed by: cddbd v1.4b41PL1 Copyright (c) Steve Scherf et al.
# Submitted via: CDValet v3.31 - Copyright (c) 1997 Greg Leichner
#
DISCID=8411651c
DTITLE=Wilson, hop and His Buddies - Steel Guitar Flash!
DYEAR=1900
DGENRE=
TTITLE0=My Woman Has A Black Cat Bone (Take 1)
TTITLE1=I Feel So Glad
TTITLE2=I'm A Stranger
TTITLE3=Be Careful With The Blues
TTITLE4=I Ain't Got No Woman
TTITLE5=My Woman Done Quit Me
TTITLE6=Merry Christmas Darling (Take 1)
TTITLE7=Dance To It
TTITLE8=Rockin' In The Coconut Top
TTITLE9=Fuss Too Much
TTITLE10=Why Do You Twist
TTITLE11=A Good Woman Is Hard To Find
TTITLE12=Rockin' In The Coconut Top
TTITLE13=Need Your Love To Keep Me Warm (Take 1)
TTITLE14=You Don't Move Me Anymore
TTITLE15=I Done Got Over
TTITLE16=You Don't Love Me Anymore
TTITLE17=Toot Toot Tootsie Goo'bye (Part 2)
TTITLE18=Your Daddy Wants To Rock
TTITLE19=Broke And Hungry
TTITLE20=Always Be In Love With You
TTITLE21=My Woman Has A Black Cat Bone (Take 2)
TTITLE22=I Met A Strange Woman
TTITLE23=Need Your Love To Keep Me Warm (Take 2)
TTITLE24=Love's Got Me All Fenced In
TTITLE25=Chicken Stuff (Alternate Take)+Rockin' With Hop
TTITLE26=That Wouldn't Satisfy
TTITLE27=Chicken Stuff
EXTD=
EXTT0=
EXTT1=
EXTT2=
EXTT3=
EXTT4=
EXTT5=Fenton Robinson (Vocal)
EXTT6=
EXTT7=
EXTT8=King Ivory Lee (Vocal)
EXTT9=King Ivory Lee (Vocal)
EXTT10=
EXTT11=
EXTT12=
EXTT13=Larry Davis (Vocal)
EXTT14=Fenton Robinson (Vocal)
EXTT15=
EXTT16=King Ivory Lee (Vocal)
EXTT17=
EXTT18=King Ivory Lee (Vocal)
EXTT19=
EXTT20=
EXTT21=
EXTT22=
EXTT23=Larry Davis (Vocal)
EXTT24=
EXTT25=
EXTT26=
EXTT27=
PLAYORDER=
